<svg width="400" height="85" viewBox="0 0 400 85" fill="none" xmlns="http://www.w3.org/2000/svg">
<g filter="url(#filter0_b_28629_3)">
<rect x="0.5" width="398.75" height="85" rx="8" fill="#F5F4F4" fill-opacity="0.24"/>
<rect x="0.75" y="0.25" width="398.25" height="84.5" rx="7.75" stroke="white" stroke-width="0.5"/>
</g>
<path d="M44.6 27.16L44.68 28.32C42.8133 28.5867 41.1067 29.1867 39.56 30.12C38.0133 31.0533 36.72 32.2667 35.68 33.76C34.64 35.2533 33.9467 36.9733 33.6 38.92L33.88 38.96C34.7067 38.16 35.52 37.5467 36.32 37.12C37.12 36.6933 38.04 36.48 39.08 36.48C41.2667 36.48 43.0133 37.2267 44.32 38.72C45.6267 40.2133 46.28 42.2667 46.28 44.88C46.28 47.6 45.5867 49.72 44.2 51.24C42.84 52.7333 40.8933 53.48 38.36 53.48C36.3867 53.48 34.76 53 33.48 52.04C32.2267 51.0533 31.2933 49.7467 30.68 48.12C30.0933 46.4667 29.8 44.6667 29.8 42.72C29.8 39.4933 30.4267 36.7467 31.68 34.48C32.96 32.2133 34.72 30.4533 36.96 29.2C39.2 27.9467 41.7467 27.2667 44.6 27.16ZM42.8 45.2C42.8 43.3867 42.3867 41.8667 41.56 40.64C40.76 39.4133 39.5333 38.8 37.88 38.8C37.1067 38.8 36.3733 38.96 35.68 39.28C35.0133 39.5733 34.4667 40.0667 34.04 40.76C33.6133 41.4533 33.4 42.3867 33.4 43.56C33.4 45.2133 33.5867 46.68 33.96 47.96C34.3333 49.24 34.8933 50.2533 35.64 51C36.4133 51.72 37.3733 52.08 38.52 52.08C39.8533 52.08 40.8933 51.5733 41.64 50.56C42.4133 49.52 42.8 47.7333 42.8 45.2ZM55.1247 38.64V49.12C55.1247 49.8133 55.178 50.36 55.2847 50.76C55.3914 51.16 55.658 51.44 56.0847 51.6C56.5114 51.76 57.178 51.84 58.0847 51.84V53H49.0047V51.84C50.0447 51.84 50.7647 51.6933 51.1647 51.4C51.5914 51.1067 51.8047 50.4 51.8047 49.28V28.8C51.8047 28.1067 51.6047 27.6667 51.2047 27.48C50.8314 27.2933 50.378 27.2 49.8447 27.2C49.5247 27.2 49.2447 27.2133 49.0047 27.24C48.7914 27.2667 48.6847 27.28 48.6847 27.28V26.16L54.0447 24.76H55.1247V36.88H55.2447C56.498 35.7067 57.618 34.8667 58.6047 34.36C59.618 33.8533 60.658 33.6 61.7247 33.6C62.8714 33.6 63.7914 33.8267 64.4847 34.28C65.2047 34.7333 65.7514 35.3333 66.1247 36.08C66.498 36.8 66.7514 37.6 66.8847 38.48C67.018 39.3333 67.0847 40.1733 67.0847 41V48.96C67.0847 50.0267 67.258 50.7733 67.6047 51.2C67.978 51.6267 68.7914 51.84 70.0447 51.84V53H60.8447V51.84C61.778 51.84 62.4447 51.7467 62.8447 51.56C63.2447 51.3733 63.498 51.08 63.6047 50.68C63.7114 50.28 63.7647 49.76 63.7647 49.12V42.2C63.7647 41.1067 63.6847 40.1067 63.5247 39.2C63.3647 38.2667 63.018 37.5333 62.4847 37C61.978 36.44 61.178 36.16 60.0847 36.16C59.3114 36.16 58.538 36.3467 57.7647 36.72C56.9914 37.0933 56.1114 37.7333 55.1247 38.64ZM78.2106 33.72V37.84H78.3306C79.344 36.3467 80.2106 35.2533 80.9306 34.56C81.6773 33.84 82.5306 33.48 83.4906 33.48C84.264 33.48 84.8373 33.68 85.2106 34.08C85.6106 34.48 85.8106 35.0267 85.8106 35.72C85.8106 36.4667 85.624 37.0133 85.2506 37.36C84.904 37.7067 84.504 37.88 84.0506 37.88C83.624 37.88 83.2373 37.7733 82.8906 37.56C82.5706 37.32 82.2906 37.0933 82.0506 36.88C81.8106 36.64 81.6106 36.52 81.4506 36.52C80.9973 36.52 80.4773 36.8667 79.8906 37.56C79.304 38.2533 78.7706 39 78.2906 39.8V48.92C78.2906 49.7467 78.3973 50.3733 78.6106 50.8C78.824 51.2267 79.1973 51.5067 79.7306 51.64C80.2906 51.7733 81.064 51.84 82.0506 51.84V53H72.0506V51.84C72.9306 51.84 73.5706 51.7733 73.9706 51.64C74.3973 51.48 74.664 51.2133 74.7706 50.84C74.904 50.44 74.9706 49.8667 74.9706 49.12V38.12C74.9706 37.4 74.904 36.8667 74.7706 36.52C74.664 36.1467 74.2506 35.96 73.5306 35.96C73.1306 35.96 72.824 35.9733 72.6106 36C72.3973 36.0267 72.2906 36.04 72.2906 36.04V34.92L77.2506 33.72H78.2106ZM102.82 51C102.82 51.6133 102.607 52.16 102.18 52.64C101.753 53.0933 101.14 53.32 100.34 53.32C99.54 53.32 98.94 53.0933 98.54 52.64C98.1667 52.1867 97.98 51.6267 97.98 50.96C97.98 50.2667 98.1933 49.68 98.62 49.2C99.0467 48.6933 99.6333 48.44 100.38 48.44C101.153 48.44 101.753 48.6933 102.18 49.2C102.607 49.7067 102.82 50.3067 102.82 51ZM102.82 36.44C102.82 37.0533 102.607 37.6 102.18 38.08C101.753 38.5333 101.14 38.76 100.34 38.76C99.54 38.76 98.94 38.5333 98.54 38.08C98.1667 37.6267 97.98 37.0667 97.98 36.4C97.98 35.7067 98.1933 35.12 98.62 34.64C99.0467 34.1333 99.6333 33.88 100.38 33.88C101.153 33.88 101.753 34.1333 102.18 34.64C102.607 35.1467 102.82 35.7467 102.82 36.44ZM133.959 46.68H129.879V53H126.319V46.68H115.239V44.16L127.439 27.2H129.879V43.92H133.959V46.68ZM126.319 43.92V31.56H126.159L117.439 43.76V43.92H126.319ZM153.243 40.32C153.243 42.0267 153.07 43.6667 152.723 45.24C152.403 46.8133 151.883 48.2133 151.163 49.44C150.47 50.6667 149.563 51.64 148.443 52.36C147.323 53.08 145.977 53.44 144.403 53.44C142.803 53.44 141.443 53.0933 140.323 52.4C139.203 51.68 138.297 50.7067 137.603 49.48C136.91 48.2533 136.403 46.84 136.083 45.24C135.763 43.64 135.603 41.96 135.603 40.2C135.603 37.6667 135.937 35.44 136.603 33.52C137.297 31.5733 138.297 30.0533 139.603 28.96C140.937 27.8667 142.563 27.32 144.483 27.32C146.217 27.32 147.737 27.84 149.043 28.88C150.35 29.8933 151.377 31.3733 152.123 33.32C152.87 35.24 153.243 37.5733 153.243 40.32ZM149.363 40.56C149.363 36.5067 148.937 33.52 148.083 31.6C147.257 29.6533 146.017 28.68 144.363 28.68C142.79 28.68 141.577 29.64 140.723 31.56C139.87 33.48 139.443 36.4267 139.443 40.4C139.443 44.2667 139.87 47.1733 140.723 49.12C141.577 51.04 142.803 52 144.403 52C145.977 52 147.19 51.0533 148.043 49.16C148.923 47.2667 149.363 44.4 149.363 40.56ZM161.728 38.72V49.12C161.728 50.24 161.915 50.9733 162.288 51.32C162.688 51.6667 163.501 51.84 164.728 51.84V53H155.608V51.84C156.461 51.84 157.075 51.7733 157.448 51.64C157.848 51.48 158.101 51.2 158.208 50.8C158.341 50.3733 158.408 49.76 158.408 48.96V37.76C158.408 37.04 158.261 36.56 157.968 36.32C157.701 36.08 157.288 35.96 156.728 35.96C156.435 35.96 156.181 35.9733 155.968 36C155.755 36.0267 155.648 36.04 155.648 36.04V34.88L160.648 33.72H161.608V36.96H161.768C162.861 36.0267 163.915 35.24 164.928 34.6C165.941 33.9333 167.128 33.6 168.488 33.6C169.635 33.6 170.555 33.92 171.248 34.56C171.968 35.1733 172.528 35.96 172.928 36.92H173.088C174.181 35.8267 175.248 35 176.288 34.44C177.328 33.88 178.381 33.6 179.448 33.6C181.021 33.6 182.275 34.0933 183.208 35.08C184.141 36.0667 184.608 37.7733 184.608 40.2V48.36C184.608 49.1867 184.648 49.8667 184.728 50.4C184.835 50.9067 185.088 51.28 185.488 51.52C185.915 51.7333 186.581 51.84 187.488 51.84V53H178.448V51.84C179.355 51.84 180.008 51.72 180.408 51.48C180.808 51.24 181.048 50.8667 181.128 50.36C181.235 49.8267 181.288 49.16 181.288 48.36V40.68C181.288 39.4533 181.128 38.52 180.808 37.88C180.515 37.24 180.101 36.8 179.568 36.56C179.061 36.2933 178.488 36.16 177.848 36.16C177.021 36.16 176.208 36.44 175.408 37C174.635 37.5333 173.915 38.08 173.248 38.64V48.36C173.248 49.2667 173.301 49.9733 173.408 50.48C173.541 50.9867 173.821 51.3467 174.248 51.56C174.675 51.7467 175.368 51.84 176.328 51.84V53H166.848V51.84C167.808 51.84 168.501 51.7467 168.928 51.56C169.355 51.3733 169.621 51.0267 169.728 50.52C169.861 50.0133 169.928 49.2933 169.928 48.36V40.44C169.928 38.7333 169.621 37.6 169.008 37.04C168.421 36.4533 167.661 36.16 166.728 36.16C165.688 36.16 164.741 36.4533 163.888 37.04C163.035 37.6267 162.315 38.1867 161.728 38.72ZM198.671 51.88V53H189.671V51.88C190.577 51.88 191.217 51.8 191.591 51.64C191.991 51.4533 192.231 51.1467 192.311 50.72C192.417 50.2933 192.471 49.7067 192.471 48.96V37.8C192.471 36.9467 192.324 36.4267 192.031 36.24C191.737 36.0267 191.297 35.92 190.711 35.92C190.444 35.92 190.204 35.9333 189.991 35.96C189.804 35.9867 189.711 36 189.711 36V34.84L194.751 33.72H195.791V48.96C195.791 49.7333 195.844 50.3333 195.951 50.76C196.057 51.1867 196.311 51.48 196.711 51.64C197.137 51.8 197.791 51.88 198.671 51.88ZM194.191 26.08C194.884 26.08 195.431 26.3067 195.831 26.76C196.257 27.1867 196.471 27.7067 196.471 28.32C196.471 28.9333 196.257 29.4667 195.831 29.92C195.431 30.3733 194.884 30.6 194.191 30.6C193.524 30.6 192.977 30.3733 192.551 29.92C192.124 29.4667 191.911 28.9333 191.911 28.32C191.911 27.7067 192.111 27.1867 192.511 26.76C192.937 26.3067 193.497 26.08 194.191 26.08ZM219.037 40.72V48.96C219.037 49.7067 219.09 50.2933 219.197 50.72C219.33 51.1467 219.61 51.4533 220.037 51.64C220.464 51.8 221.117 51.88 221.997 51.88V53H212.757V51.88C213.717 51.88 214.397 51.8 214.797 51.64C215.224 51.4533 215.477 51.1467 215.557 50.72C215.664 50.2933 215.717 49.7067 215.717 48.96V41.72C215.717 40.12 215.53 38.92 215.157 38.12C214.81 37.32 214.357 36.8 213.797 36.56C213.237 36.2933 212.65 36.16 212.037 36.16C210.97 36.16 210.05 36.4533 209.277 37.04C208.504 37.6 207.81 38.1467 207.197 38.68V48.96C207.197 49.7067 207.25 50.2933 207.357 50.72C207.464 51.1467 207.73 51.4533 208.157 51.64C208.584 51.8 209.277 51.88 210.237 51.88V53H201.077V51.88C201.984 51.88 202.624 51.8 202.997 51.64C203.397 51.4533 203.637 51.1467 203.717 50.72C203.824 50.2933 203.877 49.7067 203.877 48.96V37.72C203.877 37 203.73 36.5333 203.437 36.32C203.144 36.08 202.73 35.96 202.197 35.96C201.85 35.96 201.584 35.9733 201.397 36C201.21 36.0267 201.117 36.04 201.117 36.04V34.88L206.197 33.72H207.117L207.077 36.96H207.237C208.33 36 209.357 35.2 210.317 34.56C211.304 33.92 212.424 33.6 213.677 33.6C215.49 33.6 216.837 34.2133 217.717 35.44C218.597 36.6667 219.037 38.4267 219.037 40.72ZM224.404 46.44H225.444C225.87 48.4933 226.497 49.9333 227.324 50.76C228.15 51.56 229.297 51.96 230.764 51.96C231.777 51.96 232.604 51.76 233.244 51.36C233.884 50.9333 234.204 50.2533 234.204 49.32C234.204 48.68 234.084 48.1467 233.844 47.72C233.63 47.2933 233.204 46.8667 232.564 46.44C231.924 45.9867 230.977 45.4533 229.724 44.84C227.91 43.9067 226.577 43.0133 225.724 42.16C224.87 41.28 224.444 40.1067 224.444 38.64C224.444 36.9867 225.03 35.7333 226.204 34.88C227.404 34.0267 228.857 33.6 230.564 33.6C231.577 33.6 232.404 33.72 233.044 33.96C233.684 34.1733 234.257 34.4 234.764 34.64H234.804L235.484 33.8H236.284L236.404 39.92H235.324C234.897 38.0267 234.297 36.7333 233.524 36.04C232.75 35.32 231.75 34.96 230.524 34.96C229.617 34.96 228.844 35.1733 228.204 35.6C227.59 36.0267 227.284 36.6933 227.284 37.6C227.284 38.3733 227.644 39.0667 228.364 39.68C229.084 40.2933 230.284 41.0267 231.964 41.88C233.777 42.84 235.164 43.7733 236.124 44.68C237.084 45.56 237.564 46.7467 237.564 48.24C237.564 49.4933 237.257 50.5067 236.644 51.28C236.03 52.0267 235.204 52.5733 234.164 52.92C233.15 53.2667 232.044 53.44 230.844 53.44C229.697 53.44 228.777 53.32 228.084 53.08C227.417 52.84 226.817 52.6133 226.284 52.4H226.204L225.364 53.32H224.524L224.404 46.44ZM245.945 51C245.945 51.6133 245.732 52.16 245.305 52.64C244.878 53.0933 244.265 53.32 243.465 53.32C242.665 53.32 242.065 53.0933 241.665 52.64C241.292 52.1867 241.105 51.6267 241.105 50.96C241.105 50.2667 241.318 49.68 241.745 49.2C242.172 48.6933 242.758 48.44 243.505 48.44C244.278 48.44 244.878 48.6933 245.305 49.2C245.732 49.7067 245.945 50.3067 245.945 51ZM245.945 36.44C245.945 37.0533 245.732 37.6 245.305 38.08C244.878 38.5333 244.265 38.76 243.465 38.76C242.665 38.76 242.065 38.5333 241.665 38.08C241.292 37.6267 241.105 37.0667 241.105 36.4C241.105 35.7067 241.318 35.12 241.745 34.64C242.172 34.1333 242.758 33.88 243.505 33.88C244.278 33.88 244.878 34.1333 245.305 34.64C245.732 35.1467 245.945 35.7467 245.945 36.44ZM274.884 53H261.044V51.88C262.937 51.88 264.27 51.68 265.044 51.28C265.817 50.88 266.204 50.1867 266.204 49.2V32.28C266.204 31.5867 266.11 31.0933 265.924 30.8C265.737 30.48 265.39 30.32 264.884 30.32C264.484 30.32 263.857 30.3733 263.004 30.48C262.15 30.5867 261.417 30.7467 260.804 30.96V29.64L268.564 27.44H269.724V49.2C269.724 50.1867 270.124 50.88 270.924 51.28C271.724 51.68 273.044 51.88 274.884 51.88V53ZM294.328 31.04H284.928L283.848 35.6L285.728 35.72C286.902 35.8 288.062 36 289.208 36.32C290.355 36.64 291.395 37.12 292.328 37.76C293.262 38.4 293.995 39.2533 294.528 40.32C295.088 41.36 295.368 42.6667 295.368 44.24C295.368 46.2933 294.915 48.0133 294.008 49.4C293.102 50.76 291.835 51.7867 290.208 52.48C288.608 53.1733 286.742 53.52 284.608 53.52C281.542 53.52 280.008 52.7733 280.008 51.28C280.008 50.8267 280.142 50.4267 280.408 50.08C280.702 49.7333 281.102 49.56 281.608 49.56C282.142 49.56 282.662 49.72 283.168 50.04C283.702 50.36 284.275 50.6933 284.888 51.04C285.502 51.36 286.235 51.52 287.088 51.52C288.048 51.52 288.928 51.3333 289.728 50.96C290.555 50.5867 291.208 49.9867 291.688 49.16C292.195 48.3333 292.448 47.2267 292.448 45.84C292.448 43.3333 291.702 41.5867 290.208 40.6C288.715 39.6133 286.582 39.0533 283.808 38.92C283.302 38.8667 282.942 38.84 282.728 38.84C282.542 38.84 282.302 38.84 282.008 38.84L281.528 38.24L284.008 27.8H294.968L294.328 31.04ZM299.013 46.44H300.053C300.48 48.4933 301.106 49.9333 301.933 50.76C302.76 51.56 303.906 51.96 305.373 51.96C306.386 51.96 307.213 51.76 307.853 51.36C308.493 50.9333 308.813 50.2533 308.813 49.32C308.813 48.68 308.693 48.1467 308.453 47.72C308.24 47.2933 307.813 46.8667 307.173 46.44C306.533 45.9867 305.586 45.4533 304.333 44.84C302.52 43.9067 301.186 43.0133 300.333 42.16C299.48 41.28 299.053 40.1067 299.053 38.64C299.053 36.9867 299.64 35.7333 300.813 34.88C302.013 34.0267 303.466 33.6 305.173 33.6C306.186 33.6 307.013 33.72 307.653 33.96C308.293 34.1733 308.866 34.4 309.373 34.64H309.413L310.093 33.8H310.893L311.013 39.92H309.933C309.506 38.0267 308.906 36.7333 308.133 36.04C307.36 35.32 306.36 34.96 305.133 34.96C304.226 34.96 303.453 35.1733 302.813 35.6C302.2 36.0267 301.893 36.6933 301.893 37.6C301.893 38.3733 302.253 39.0667 302.973 39.68C303.693 40.2933 304.893 41.0267 306.573 41.88C308.386 42.84 309.773 43.7733 310.733 44.68C311.693 45.56 312.173 46.7467 312.173 48.24C312.173 49.4933 311.866 50.5067 311.253 51.28C310.64 52.0267 309.813 52.5733 308.773 52.92C307.76 53.2667 306.653 53.44 305.453 53.44C304.306 53.44 303.386 53.32 302.693 53.08C302.026 52.84 301.426 52.6133 300.893 52.4H300.813L299.973 53.32H299.133L299.013 46.44Z" fill="white"/>
<defs>
<filter id="filter0_b_28629_3" x="-2.5" y="-3" width="404.75" height="91" filterUnits="userSpaceOnUse" color-interpolation-filters="sRGB">
<feFlood flood-opacity="0" result="BackgroundImageFix"/>
<feGaussianBlur in="BackgroundImageFix" stdDeviation="1.5"/>
<feComposite in2="SourceAlpha" operator="in" result="effect1_backgroundBlur_28629_3"/>
<feBlend mode="normal" in="SourceGraphic" in2="effect1_backgroundBlur_28629_3" result="shape"/>
</filter>
</defs>
</svg>
