<svg width="57" height="58" viewBox="0 0 57 58" fill="none" xmlns="http://www.w3.org/2000/svg">
<path d="M56.4781 28.59C56.4781 44.2919 43.8698 57.0181 28.32 57.0181C12.7702 57.0181 0.161911 44.2919 0.161911 28.59C0.161911 12.8881 12.7702 0.161911 28.32 0.161911C43.8698 0.161911 56.4781 12.8881 56.4781 28.59Z" stroke="white" stroke-width="0.323821"/>
<path fill-rule="evenodd" clip-rule="evenodd" d="M13.7969 28.59C13.7969 28.3092 13.9062 28.0399 14.1007 27.8414C14.2952 27.6428 14.5591 27.5313 14.8342 27.5313H39.2998L32.7711 20.8697C32.5763 20.6709 32.4669 20.4012 32.4669 20.1201C32.4669 19.8389 32.5763 19.5693 32.7711 19.3705C32.9659 19.1717 33.2301 19.06 33.5055 19.06C33.781 19.06 34.0451 19.1717 34.2399 19.3705L42.5383 27.8404C42.6349 27.9388 42.7115 28.0556 42.7638 28.1842C42.8161 28.3128 42.843 28.4507 42.843 28.59C42.843 28.7293 42.8161 28.8672 42.7638 28.9958C42.7115 29.1244 42.6349 29.2412 42.5383 29.3396L34.2399 37.8095C34.0451 38.0083 33.781 38.12 33.5055 38.12C33.2301 38.12 32.9659 38.0083 32.7711 37.8095C32.5763 37.6107 32.4669 37.3411 32.4669 37.0599C32.4669 36.7788 32.5763 36.5091 32.7711 36.3103L39.2998 29.6487H14.8342C14.5591 29.6487 14.2952 29.5372 14.1007 29.3386C13.9062 29.1401 13.7969 28.8708 13.7969 28.59Z" fill="white"/>
</svg>
